# xmcd
#
# Track frame offsets:
# 150
# 16112
# 37197
# 55081
# 74146
# 90608
# 108341
# 128357
# 144013
# 158468
# 176219
# 195427
# 215462
# 231634
# 246336
# 266883
#
# Disc length: 3799 seconds
#
#
# Revision: 1
# Processed by: cddbd v1.5.1PL0 Copyright (c) Steve Scherf et al.
# Submitted via: FreeRIP 2.70 
#
DISCID=e10ed510
DTITLE=Преслава - Преслава
DYEAR=2004
DGENRE=Pop-Folk
TTITLE0=Нямаш сърце
TTITLE1=Горчиви спомени
TTITLE2=Мразя те
TTITLE3=Помниш ли
TTITLE4=Мили мой
TTITLE5=Молиш ме (feat. Рашид Ал Рашид)
TTITLE6=Другата жена
TTITLE7=Първа шпага
TTITLE8=Дума за вярност
TTITLE9=Обичам те
TTITLE10=Тази нощ безумна
TTITLE11=Раздвоени (дует с Милко Калайджиев)
TTITLE12=Всичко свърши
TTITLE13=Писна ми
TTITLE14=Любов балканска (feat. орк. Академци)
TTITLE15=Всеотдайност
EXTD=
EXTT0=
EXTT1=
EXTT2=
EXTT3=
EXTT4=
EXTT5=
EXTT6=
EXTT7=
EXTT8=
EXTT9=
EXTT10=
EXTT11=
EXTT12=
EXTT13=
EXTT14=
EXTT15=
PLAYORDER=
